<?xml version="1.0" encoding="utf-8"?>
<!-- Generator: Adobe Illustrator 16.0.0, SVG Export Plug-In . SVG Version: 6.00 Build 0)  -->
<!DOCTYPE svg PUBLIC "-//W3C//DTD SVG 1.1//EN" "http://www.w3.org/Graphics/SVG/1.1/DTD/svg11.dtd">
<svg version="1.1" id="Layer_1" xmlns="http://www.w3.org/2000/svg" xmlns:xlink="http://www.w3.org/1999/xlink" x="0px" y="0px"
	 width="508px" height="103.333px" viewBox="0 0 508 103.333" enable-background="new 0 0 508 103.333" xml:space="preserve">
<g>
	<g>
		<g>
			<path fill="#FF6044" d="M231.803,98.611c1.907,1.91,5.017,1.91,6.94-0.006c1.907-1.911,1.914-5.017,0.006-6.93
				c-1.91-1.919-5.016-1.914-6.943-0.003C229.893,93.584,229.886,96.689,231.803,98.611z"/>
			<path fill="#FFFFFF" d="M224.892,77.797c1.922,1.922,1.918,5.019-0.003,6.93c-1.919,1.916-5.019,1.916-6.935-0.004
				c-1.91-1.912-1.91-5.018,0.006-6.935C219.876,75.878,222.981,75.879,224.892,77.797z M231.851,63.939
				c1.91-1.916,5.023-1.91,6.935,0.008c1.911,1.914,1.916,5.02-0.012,6.938c-1.919,1.901-5.019,1.907-6.935-0.012
				C229.937,68.955,229.929,65.847,231.851,63.939z M211.007,91.646c1.916,1.922,1.916,5.021-0.006,6.935
				c-1.916,1.911-5.016,1.91-6.932,0c-1.91-1.922-1.91-5.021,0.002-6.938C205.991,89.732,209.097,89.736,211.007,91.646z
				 M245.699,77.809c1.919-1.91,5.024-1.906,6.935,0.018c1.916,1.913,1.907,5.02-0.012,6.93c-1.91,1.91-5.019,1.906-6.926-0.003
				C243.776,82.831,243.786,79.725,245.699,77.809z M259.546,98.625c-1.92-1.921-1.92-5.021,0.008-6.938
				c1.914-1.91,5.025-1.906,6.938,0.003c1.908,1.922,1.908,5.027-0.012,6.938C264.558,100.545,261.452,100.541,259.546,98.625z"/>
		</g>
		<path fill="#FFFFFF" d="M196.642,85.781l10.655-9.158c-3.053-2.991-5.515-6.488-7.381-10.487
			c-2.087-4.476-3.136-9.315-3.136-14.525c0-5.469,0.981-10.487,2.938-15.044c1.963-4.562,4.654-8.512,8.093-11.857
			c3.438-3.34,7.5-5.928,12.204-7.748c4.692-1.82,9.741-2.734,15.137-2.734c5.216,0,10.13,0.889,14.741,2.666
			c4.611,1.785,8.68,4.303,12.197,7.557c3.531,3.259,6.311,7.123,8.359,11.593c2.037,4.476,3.062,9.358,3.062,14.655
			s-1.025,10.204-3.062,14.723c-1.91,4.204-4.42,7.904-7.529,11.091l10.955,9.372c3.945-4.123,7.152-8.866,9.611-14.24
			c2.834-6.18,4.248-12.877,4.248-20.1c0-7.303-1.371-14.094-4.111-20.354c-2.748-6.266-6.494-11.723-11.236-16.377
			c-4.752-4.654-10.309-8.309-16.66-10.963c-6.359-2.654-13.155-3.982-20.384-3.982c-6.97,0-13.63,1.266-19.989,3.785
			c-6.357,2.524-11.957,6.024-16.79,10.506c-4.833,4.482-8.667,9.791-11.501,15.92c-2.827,6.137-4.24,12.767-4.24,19.902
			c0,7.303,1.352,14.155,4.049,20.551C189.31,76.308,192.567,81.39,196.642,85.781z"/>
	</g>
	<g>
		<path fill="#FFFFFF" d="M17.101,59.938v40.15H2.878V2.738h68.508v14.358l-54.285,0.001v28.488h31.025v14.352H17.101z"/>
		<path fill="#FFFFFF" d="M128.006,59.766h-11.377c-3.136,0-6.253,0.24-9.346,0.715c-3.099,0.482-6.124,1.501-9.087,3.068v36.539
			H83.974V2.738h51.236c4.438,0,8.531,0.636,12.285,1.895c3.74,1.26,6.987,3.111,9.734,5.544c2.747,2.438,4.883,5.438,6.401,9.007
			c1.53,3.567,2.29,7.654,2.29,12.266c0,7.395-2,13.439-5.994,18.137c-3.987,4.697-9.519,7.92-16.58,9.661l7.568,15.524
			c1.58,2.266,2.938,4.094,4.08,5.482c1.142,1.389,2.24,2.5,3.29,3.327s2.147,1.396,3.296,1.697
			c1.137,0.303,2.494,0.457,4.074,0.457l4.568-0.13v14.482c-2.777,0-5.593-0.087-8.42-0.26c-2.84-0.172-5.556-0.74-8.174-1.697
			c-2.617-0.957-5.098-2.481-7.457-4.568c-2.346-2.086-4.443-5.043-6.271-8.871L128.006,59.766z M98.196,49.229
			c2.957-1.754,5.957-2.828,9-3.223c3.05-0.396,6.18-0.594,9.396-0.594h18.532c4.963,0,8.963-1.16,12.006-3.493
			c3.044-2.321,4.568-6.074,4.568-11.247c0-2.5-0.438-4.611-1.303-6.334c-0.877-1.723-2.049-3.123-3.531-4.204
			c-1.475-1.074-3.216-1.852-5.216-2.327c-2.007-0.476-4.179-0.71-6.524-0.71H98.196V49.229z"/>
		<path fill="#FFFFFF" d="M300.421,2.738h41.891c6.605,0,12.704,1.29,18.31,3.852c5.599,2.568,10.444,6.051,14.519,10.439
			c4.087,4.395,7.278,9.506,9.581,15.334c2.296,5.827,3.451,12.05,3.451,18.66c0,6.611-1.272,13.094-3.815,19.445
			c-2.543,6.347-6.056,11.914-10.537,16.699c-4.525,4.783-9.223,8.135-14.094,10.049c-4.87,1.914-10.524,2.871-16.963,2.871h-42.342
			V17.097l0,0V2.738z M314.385,85.734h28.378c4.697,0,8.981-0.912,12.852-2.734c3.871-1.82,7.155-4.277,9.853-7.357
			c2.697-3.087,4.784-6.667,6.266-10.748c1.476-4.08,2.216-8.377,2.216-12.895c0-4.686-0.697-9.137-2.086-13.348
			c-1.396-4.209-3.438-7.926-6.13-11.135c-2.704-3.217-5.988-5.754-9.853-7.618c-3.877-1.87-8.334-2.803-13.383-2.803h-28.112
			V85.734z"/>
		<path fill="#FFFFFF" d="M505.726,51.543c0,7.223-1.414,13.92-4.247,20.1c-2.827,6.18-6.643,11.525-11.433,16.05
			s-10.364,8.087-16.717,10.698c-6.364,2.61-13.068,3.914-20.124,3.914c-7.408,0-14.285-1.347-20.643-4.044
			c-6.358-2.698-11.89-6.396-16.594-11.093c-4.704-4.698-8.407-10.242-11.105-16.637c-2.697-6.396-4.05-13.248-4.05-20.551
			c0-7.136,1.414-13.766,4.241-19.902c2.833-6.129,6.667-11.438,11.501-15.92c4.833-4.481,10.432-7.981,16.791-10.506
			c6.357-2.52,13.019-3.785,19.988-3.785c7.229,0,14.024,1.328,20.383,3.982c6.353,2.654,11.908,6.309,16.661,10.963
			c4.741,4.654,8.488,10.111,11.235,16.377C504.355,37.449,505.726,44.24,505.726,51.543z M491.503,50.697
			c0-5.297-1.025-10.18-3.062-14.656c-2.049-4.469-4.827-8.333-8.357-11.592c-3.52-3.254-7.587-5.771-12.198-7.557
			c-4.611-1.777-9.525-2.666-14.741-2.666c-5.396,0-10.445,0.914-15.137,2.734c-4.704,1.82-8.766,4.408-12.204,7.748
			c-3.438,3.346-6.13,7.296-8.093,11.857c-1.957,4.557-2.938,9.575-2.938,15.044c0,5.21,1.049,10.05,3.136,14.525
			c2.087,4.47,4.914,8.315,8.481,11.525c3.568,3.216,7.655,5.734,12.267,7.556s9.481,2.734,14.611,2.734
			c5.223,0,10.161-0.95,14.815-2.864c4.654-1.907,8.698-4.536,12.137-7.883c3.432-3.34,6.173-7.272,8.222-11.784
			C490.478,60.901,491.503,55.994,491.503,50.697z"/>
	</g>
</g>
</svg>
