<?xml version="1.0" encoding="utf-8"?>
<!-- Generator: Adobe Illustrator 16.0.0, SVG Export Plug-In . SVG Version: 6.00 Build 0)  -->
<!DOCTYPE svg PUBLIC "-//W3C//DTD SVG 1.1//EN" "http://www.w3.org/Graphics/SVG/1.1/DTD/svg11.dtd">
<svg version="1.1" id="Layer_1" xmlns="http://www.w3.org/2000/svg" xmlns:xlink="http://www.w3.org/1999/xlink" x="0px" y="0px"
	 width="582.25px" height="120px" viewBox="15.5 0 582.25 120" enable-background="new 15.5 0 582.25 120" xml:space="preserve">
<g>
	<g>
		<g>
			<path fill="#F49E00" d="M171.394,107.803c-0.854,1.125-0.396,2.049,1.021,2.049h16.495c1.416,0,3.271-0.924,4.126-2.052
				l32.962-43.516c0.854-1.128,0.396-2.052-1.021-2.052h-16.495c-1.416,0-3.271,0.924-4.126,2.052L171.394,107.803z"/>
		</g>
		<g>
			<path fill="#E21913" d="M207.461,64.283c-0.854-1.129-0.396-2.053,1.021-2.053l16.495,0.004c1.415,0,3.271,0.92,4.125,2.051
				l32.962,43.518c0.854,1.125,0.396,2.049-1.019,2.049h-16.497c-1.415,0-3.271-0.924-4.125-2.051L207.461,64.283z"/>
		</g>
		<g>
			<path fill="#0099A2" d="M207.461,55.712c-0.854,1.128-0.396,2.051,1.021,2.051h16.495c1.415,0,3.271-0.923,4.125-2.051
				l32.963-43.516c0.854-1.127,0.396-2.051-1.019-2.051h-16.497c-1.416,0-3.271,0.924-4.126,2.051L207.461,55.712z"/>
		</g>
		<g>
			<path fill="#872A80" d="M171.394,12.197c-0.854-1.127-0.396-2.051,1.021-2.051h16.495c1.416,0,3.271,0.924,4.126,2.051
				l32.962,43.516c0.854,1.128,0.396,2.051-1.021,2.051h-16.495c-1.416,0-3.271-0.923-4.126-2.051L171.394,12.197z"/>
		</g>
	</g>
	<g>
		<path fill="#FFFFFF" d="M68.167,97.925c-1.368,0-1.563-0.294-2.541-1.567L19.601,35.774v58.628c0,1.955,0,3.522-1.855,3.522
			c-1.76,0-1.76-1.661-1.76-3.618V34.502c0-3.908,0-4.492,2.15-4.492c1.856,0,2.15,0.781,3.419,2.441l44.562,59.021V33.918
			c0-3.127,0-4.397,1.856-4.397c1.759,0,1.759,1.366,1.759,4.397v60.096C69.731,96.165,69.731,97.925,68.167,97.925z"/>
		<path fill="#FFFFFF" d="M155.625,97.434h-46.123c-0.979,0-1.466-0.488-1.466-1.465V31.963c0-0.979,0.487-1.467,1.466-1.467h43.876
			c2.345,0,2.933,0.88,2.933,1.76c0,0.88-0.588,1.855-2.933,1.855h-41.728v26.482h22.77c2.347,0,2.931,0.88,2.931,1.761
			c0,0.879-0.584,1.854-2.931,1.854h-22.77v29.608h43.975c2.442,0,2.933,0.881,2.933,1.758
			C158.558,96.458,157.971,97.434,155.625,97.434z"/>
		<path fill="#FFFFFF" d="M303.214,98.9c-18.663,0-34.297-15.047-34.297-35.08c0-20.62,17.195-34.788,35.079-34.788
			c16.808,0,28.632,14.07,28.632,16.025c0,0.979-0.392,1.564-1.465,1.564c-0.979,0-1.856-0.978-3.42-2.835
			c-3.322-3.906-11.335-11.14-23.747-11.14c-16.808,0-31.466,13.291-31.466,30.881c0,18.467,13.779,31.757,30.684,31.757
			c14.953,0,26.385-9.868,28.144-10.943V66.165h-24.525c-2.054,0-3.029-0.293-3.029-1.757c0-1.467,1.074-1.858,3.029-1.858h26.385
			c1.66,0,1.759,0.685,1.759,2.052v21.596C331.651,88.346,318.948,98.9,303.214,98.9z"/>
		<path fill="#FFFFFF" d="M416.179,97.434h-46.125c-0.976,0-1.464-0.488-1.464-1.465V31.963c0-0.979,0.488-1.465,1.464-1.465h43.876
			c2.347,0,2.933,0.878,2.933,1.758c0,0.88-0.586,1.857-2.933,1.857h-41.725v26.48h22.769c2.344,0,2.932,0.88,2.932,1.761
			c0,0.879-0.588,1.854-2.932,1.854h-22.769v29.608h43.974c2.441,0,2.932,0.881,2.932,1.761S418.524,97.434,416.179,97.434z"/>
		<path fill="#FFFFFF" d="M509.401,97.925c-1.465,0-2.052-1.567-2.639-2.737l-8.306-18.078h-39.282l-9.48,19.056
			c-0.39,0.685-0.78,1.761-1.854,1.761c-0.979,0-1.954-0.49-1.954-1.662c0-0.685,0.684-1.761,1.074-2.541l30.587-61.955
			c0.78-1.563,1.27-2.246,2.245-2.246c0.979,0,1.468,0.683,2.15,2.246l28.339,62.442c0.195,0.589,0.782,1.662,0.782,2.249
			C511.063,96.945,510.866,97.925,509.401,97.925z M479.694,35.187l-18.762,38.307h36.059L479.694,35.187z"/>
		<path fill="#FFFFFF" d="M579.759,68.02l13.096,26.875c0.195,0.391,0.392,0.879,0.392,1.369c0,0.879-0.586,1.661-1.465,1.661
			c-1.077,0-1.466-0.589-2.054-1.858l-14.071-27.945h-30.391v25.697c0,2.738-0.195,4.106-1.759,4.106
			c-1.857,0-1.857-1.567-1.857-3.911V31.963c0-1.073,0.489-1.465,1.468-1.465h32.148c13.29,0,22.083,6.351,22.083,18.761
			C597.349,63.527,587.969,66.751,579.759,68.02z M575.266,34.114h-30v30.389h26.092c14.17,0,22.377-1.854,22.377-15.243
			C593.734,40.074,587.577,34.114,575.266,34.114z"/>
	</g>
	<path fill="#E21913" d="M189.363,84.208l14.992-19.923c0,0,1.897-2.055,4.126-2.055c2.228,0,8.576,14.66,8.576,14.66
		S208.172,65.396,189.363,84.208z"/>
	<path fill="#872A80" d="M244.112,35.786L229.12,55.708c0,0-1.897,2.054-4.125,2.054c-2.229,0-8.577-14.659-8.577-14.659
		S225.304,54.594,244.112,35.786z"/>
</g>
</svg>
