<?xml version="1.0" encoding="utf-8"?>
<!-- Generator: Adobe Illustrator 16.0.0, SVG Export Plug-In . SVG Version: 6.00 Build 0)  -->
<!DOCTYPE svg PUBLIC "-//W3C//DTD SVG 1.1//EN" "http://www.w3.org/Graphics/SVG/1.1/DTD/svg11.dtd">
<svg version="1.1" id="Layer_1" xmlns="http://www.w3.org/2000/svg" xmlns:xlink="http://www.w3.org/1999/xlink" x="0px" y="0px"
	 width="140px" height="30px" viewBox="0 0 140 30" enable-background="new 0 0 140 30" xml:space="preserve">
<g>
	<g>
		<g>
			<circle fill="#FF6044" cx="65.316" cy="26.875" r="1.34"/>
			<path d="M62.482,22.14c0.524,0.524,0.523,1.37-0.001,1.892c-0.524,0.523-1.37,0.523-1.893-0.001
				c-0.521-0.521-0.521-1.369,0.001-1.893C61.113,21.616,61.96,21.616,62.482,22.14z M64.382,18.357
				c0.521-0.523,1.371-0.521,1.893,0.002c0.522,0.522,0.523,1.37-0.003,1.894c-0.524,0.52-1.37,0.521-1.893-0.003
				C63.859,19.727,63.857,18.878,64.382,18.357z M58.692,25.92c0.523,0.524,0.523,1.371-0.001,1.894
				c-0.523,0.521-1.37,0.521-1.893,0c-0.521-0.524-0.521-1.371,0-1.894C57.323,25.397,58.17,25.398,58.692,25.92z M68.162,22.144
				c0.524-0.521,1.372-0.521,1.893,0.005c0.523,0.521,0.521,1.37-0.003,1.891c-0.521,0.521-1.37,0.521-1.891-0.001
				C67.637,23.514,67.639,22.667,68.162,22.144z M71.941,27.825c-0.524-0.523-0.524-1.371,0.002-1.894
				c0.522-0.521,1.372-0.521,1.894,0.001c0.521,0.524,0.521,1.372-0.003,1.895C73.31,28.35,72.462,28.349,71.941,27.825z"/>
		</g>
		<path d="M54.77,24.319l2.909-2.5c-0.833-0.816-1.505-1.771-2.015-2.862c-0.57-1.222-0.856-2.543-0.856-3.966
			c0-1.492,0.268-2.862,0.802-4.105c0.536-1.246,1.27-2.324,2.209-3.237c0.938-0.912,2.047-1.618,3.331-2.115
			c1.281-0.497,2.659-0.746,4.132-0.746c1.424,0,2.765,0.243,4.024,0.728c1.259,0.487,2.37,1.175,3.33,2.062
			c0.964,0.89,1.723,1.945,2.282,3.165c0.556,1.222,0.836,2.555,0.836,4s-0.28,2.786-0.836,4.02
			c-0.521,1.147-1.206,2.158-2.055,3.027l2.99,2.559c1.077-1.126,1.953-2.421,2.624-3.888c0.774-1.688,1.16-3.516,1.16-5.486
			c0-1.994-0.375-3.848-1.123-5.557c-0.75-1.71-1.773-3.2-3.067-4.47c-1.297-1.271-2.813-2.269-4.547-2.993
			c-1.736-0.725-3.591-1.087-5.564-1.087c-1.903,0-3.721,0.346-5.457,1.033c-1.735,0.688-3.264,1.645-4.583,2.868
			s-2.366,2.672-3.14,4.346c-0.771,1.675-1.157,3.484-1.157,5.433c0,1.993,0.369,3.864,1.105,5.609
			C52.769,21.733,53.658,23.121,54.77,24.319z"/>
	</g>
	<g>
		<path d="M5.76,17.265v10.96H1.878V1.651h18.701V5.57H5.76v7.777h8.469v3.917H5.76z"/>
		<path d="M36.035,17.218h-3.106c-0.855,0-1.707,0.065-2.551,0.194c-0.846,0.133-1.672,0.41-2.48,0.838v9.975h-3.883V1.651h13.986
			c1.211,0,2.329,0.174,3.354,0.518c1.021,0.344,1.907,0.848,2.657,1.513s1.333,1.484,1.747,2.459
			c0.418,0.973,0.625,2.09,0.625,3.348c0,2.019-0.546,3.669-1.636,4.95c-1.088,1.282-2.599,2.162-4.526,2.638l2.066,4.237
			c0.431,0.619,0.801,1.118,1.114,1.497c0.311,0.38,0.611,0.683,0.897,0.908c0.287,0.227,0.586,0.381,0.9,0.464
			c0.31,0.082,0.681,0.124,1.112,0.124l1.247-0.035v3.953c-0.758,0-1.526-0.023-2.298-0.07c-0.775-0.048-1.517-0.202-2.231-0.464
			c-0.715-0.261-1.392-0.677-2.036-1.247c-0.64-0.569-1.213-1.377-1.712-2.422L36.035,17.218z M27.897,14.342
			c0.807-0.479,1.626-0.772,2.457-0.88c0.833-0.108,1.687-0.162,2.565-0.162h5.059c1.355,0,2.447-0.317,3.277-0.953
			c0.831-0.634,1.247-1.659,1.247-3.07c0-0.683-0.12-1.259-0.355-1.729c-0.24-0.47-0.559-0.853-0.964-1.147
			c-0.403-0.293-0.878-0.505-1.424-0.636c-0.548-0.129-1.141-0.193-1.781-0.193h-10.08V14.342z"/>
		<path d="M83.099,1.651h11.436c1.803,0,3.467,0.352,4.998,1.052c1.528,0.701,2.852,1.651,3.963,2.849
			c1.116,1.2,1.987,2.595,2.616,4.186c0.627,1.591,0.942,3.289,0.942,5.095c0,1.804-0.348,3.574-1.042,5.308
			c-0.694,1.732-1.653,3.252-2.876,4.558c-1.235,1.306-2.518,2.222-3.848,2.744c-1.329,0.522-2.873,0.783-4.63,0.783H83.099V5.57
			l0,0V1.651z M86.911,24.307h7.747c1.282,0,2.451-0.249,3.508-0.746c1.057-0.498,1.953-1.168,2.689-2.008
			c0.737-0.844,1.306-1.821,1.71-2.935c0.403-1.114,0.605-2.287,0.605-3.521c0-1.278-0.19-2.493-0.57-3.644
			c-0.38-1.149-0.938-2.163-1.673-3.039c-0.738-0.878-1.635-1.57-2.689-2.079C97.18,5.825,95.963,5.57,94.585,5.57h-7.674V24.307z"
			/>
		<path d="M139.142,14.974c0,1.971-0.386,3.799-1.16,5.486c-0.771,1.688-1.812,3.146-3.121,4.382
			c-1.308,1.234-2.829,2.207-4.563,2.92c-1.737,0.712-3.567,1.068-5.494,1.068c-2.022,0-3.899-0.368-5.635-1.104
			c-1.736-0.737-3.245-1.746-4.529-3.029c-1.284-1.282-2.295-2.795-3.032-4.541c-0.736-1.745-1.105-3.616-1.105-5.609
			c0-1.948,0.386-3.758,1.158-5.433c0.773-1.674,1.82-3.122,3.14-4.346c1.319-1.224,2.847-2.18,4.583-2.868
			c1.735-0.688,3.554-1.033,5.456-1.033c1.973,0,3.828,0.362,5.564,1.087c1.734,0.725,3.25,1.722,4.548,2.993
			c1.294,1.27,2.317,2.76,3.067,4.47C138.768,11.126,139.142,12.979,139.142,14.974z M135.26,14.742c0-1.445-0.28-2.778-0.836-4.001
			c-0.56-1.219-1.318-2.274-2.281-3.164c-0.961-0.888-2.071-1.575-3.33-2.062c-1.259-0.484-2.6-0.728-4.024-0.728
			c-1.473,0-2.852,0.249-4.132,0.746c-1.284,0.497-2.393,1.203-3.332,2.115c-0.938,0.913-1.673,1.991-2.209,3.237
			c-0.534,1.243-0.802,2.613-0.802,4.105c0,1.423,0.287,2.744,0.856,3.966c0.57,1.221,1.342,2.27,2.315,3.146
			s2.09,1.564,3.349,2.062c1.259,0.497,2.588,0.746,3.988,0.746c1.425,0,2.773-0.26,4.044-0.782
			c1.271-0.521,2.375-1.238,3.313-2.151c0.937-0.912,1.685-1.985,2.245-3.217C134.979,17.528,135.26,16.188,135.26,14.742z"/>
	</g>
</g>
</svg>
