<?xml version="1.0" encoding="utf-8"?>
<!-- Generator: Adobe Illustrator 16.0.0, SVG Export Plug-In . SVG Version: 6.00 Build 0)  -->
<!DOCTYPE svg PUBLIC "-//W3C//DTD SVG 1.1//EN" "http://www.w3.org/Graphics/SVG/1.1/DTD/svg11.dtd">
<svg version="1.1" id="Layer_1" xmlns="http://www.w3.org/2000/svg" xmlns:xlink="http://www.w3.org/1999/xlink" x="0px" y="0px"
	 width="410.583px" height="70.14px" viewBox="0 0 410.583 70.14" enable-background="new 0 0 410.583 70.14" xml:space="preserve">
<g>
	<g>
		<path fill="#383738" d="M12,66.576c-0.414,0.216-0.846,0.372-1.296,0.468c-0.45,0.097-0.909,0.145-1.377,0.145
			c-0.498,0-0.957-0.078-1.377-0.234c-0.42-0.155-0.783-0.379-1.089-0.67c-0.306-0.291-0.544-0.644-0.715-1.058
			s-0.256-0.876-0.256-1.386c0-0.511,0.085-0.973,0.256-1.387s0.41-0.767,0.715-1.058c0.306-0.291,0.669-0.514,1.089-0.67
			c0.42-0.156,0.879-0.234,1.377-0.234c0.51,0,0.979,0.062,1.408,0.185c0.429,0.123,0.806,0.335,1.13,0.635l-0.99,1.08
			c-0.192-0.198-0.408-0.348-0.648-0.45c-0.24-0.102-0.54-0.153-0.9-0.153c-0.3,0-0.572,0.052-0.814,0.153
			c-0.243,0.103-0.452,0.244-0.625,0.428c-0.174,0.183-0.308,0.4-0.401,0.652c-0.093,0.252-0.139,0.525-0.139,0.819
			c0,0.3,0.046,0.574,0.139,0.823c0.093,0.249,0.227,0.465,0.401,0.647c0.174,0.184,0.382,0.326,0.625,0.428
			c0.243,0.103,0.514,0.153,0.814,0.153c0.306,0,0.57-0.034,0.792-0.104c0.222-0.069,0.399-0.14,0.531-0.212v-1.035H9.507v-1.296H12
			V66.576z"/>
		<path fill="#383738" d="M15.087,60.654h4.329v1.296h-2.925v1.188h2.763v1.296h-2.763v1.296h3.087v1.296h-4.491V60.654z"/>
		<path fill="#383738" d="M22.503,60.654h1.908l2.709,4.428h0.018v-4.428h1.404v6.372h-1.836l-2.781-4.536h-0.018v4.536h-1.404
			V60.654z"/>
		<path fill="#383738" d="M31.62,60.654h1.404v6.372H31.62V60.654z"/>
		<path fill="#383738" d="M41.475,64.569c0,0.378-0.057,0.727-0.171,1.044c-0.114,0.318-0.284,0.594-0.509,0.828
			c-0.225,0.234-0.505,0.417-0.841,0.549s-0.723,0.198-1.161,0.198c-0.444,0-0.834-0.066-1.17-0.198s-0.616-0.314-0.841-0.549
			s-0.395-0.51-0.509-0.828c-0.114-0.317-0.171-0.666-0.171-1.044v-3.915h1.404v3.861c0,0.197,0.032,0.381,0.095,0.549
			s0.151,0.313,0.266,0.437c0.114,0.123,0.25,0.219,0.409,0.288c0.159,0.069,0.332,0.104,0.518,0.104s0.357-0.034,0.513-0.104
			c0.156-0.069,0.291-0.165,0.405-0.288c0.114-0.123,0.203-0.269,0.266-0.437s0.095-0.352,0.095-0.549v-3.861h1.404V64.569z"/>
		<path fill="#383738" d="M47.721,62.211c-0.114-0.144-0.269-0.25-0.463-0.319c-0.195-0.068-0.379-0.104-0.554-0.104
			c-0.102,0-0.207,0.013-0.315,0.036c-0.108,0.024-0.21,0.062-0.306,0.112c-0.096,0.052-0.174,0.119-0.234,0.203
			s-0.09,0.186-0.09,0.306c0,0.192,0.072,0.339,0.216,0.441c0.144,0.102,0.326,0.188,0.545,0.261
			c0.219,0.072,0.454,0.144,0.707,0.216c0.252,0.072,0.487,0.174,0.706,0.306c0.219,0.133,0.401,0.31,0.545,0.531
			c0.144,0.223,0.216,0.52,0.216,0.892c0,0.354-0.066,0.663-0.198,0.927c-0.132,0.264-0.31,0.482-0.535,0.657
			c-0.225,0.174-0.486,0.303-0.783,0.387s-0.61,0.126-0.94,0.126c-0.414,0-0.798-0.063-1.152-0.189s-0.684-0.329-0.99-0.611
			l0.999-1.099c0.144,0.192,0.326,0.341,0.544,0.446c0.219,0.104,0.446,0.157,0.68,0.157c0.114,0,0.229-0.014,0.347-0.041
			c0.117-0.026,0.222-0.067,0.315-0.121c0.093-0.054,0.168-0.123,0.225-0.207c0.057-0.084,0.086-0.183,0.086-0.297
			c0-0.192-0.074-0.344-0.221-0.455c-0.147-0.11-0.332-0.205-0.554-0.283c-0.222-0.078-0.462-0.156-0.72-0.234
			c-0.258-0.077-0.498-0.183-0.72-0.314c-0.222-0.132-0.406-0.306-0.553-0.522c-0.147-0.216-0.221-0.501-0.221-0.854
			c0-0.342,0.067-0.642,0.203-0.9c0.135-0.258,0.315-0.474,0.54-0.647s0.484-0.305,0.778-0.392s0.597-0.131,0.909-0.131
			c0.36,0,0.708,0.051,1.044,0.153c0.336,0.102,0.639,0.273,0.909,0.513L47.721,62.211z"/>
	</g>
	<g>
		<path fill="#383738" d="M94.828,60.654h1.161l2.772,6.372h-1.584l-0.549-1.35h-2.475l-0.531,1.35h-1.548L94.828,60.654z
			 M95.368,62.509l-0.774,1.979h1.557L95.368,62.509z"/>
		<path fill="#383738" d="M105.367,62.311c-0.138-0.168-0.308-0.297-0.508-0.387c-0.201-0.091-0.434-0.136-0.698-0.136
			s-0.508,0.052-0.733,0.153c-0.225,0.103-0.42,0.244-0.585,0.428c-0.165,0.183-0.294,0.4-0.387,0.652
			c-0.093,0.252-0.139,0.525-0.139,0.819c0,0.3,0.046,0.574,0.139,0.823c0.093,0.249,0.221,0.465,0.383,0.647
			c0.162,0.184,0.352,0.326,0.571,0.428c0.219,0.103,0.455,0.153,0.707,0.153c0.288,0,0.543-0.061,0.765-0.181
			c0.222-0.119,0.405-0.287,0.549-0.504l1.17,0.873c-0.27,0.378-0.612,0.657-1.026,0.837c-0.414,0.181-0.84,0.271-1.278,0.271
			c-0.498,0-0.957-0.078-1.377-0.234c-0.42-0.155-0.783-0.379-1.089-0.67c-0.306-0.291-0.544-0.644-0.715-1.058
			s-0.256-0.876-0.256-1.386c0-0.511,0.085-0.973,0.256-1.387s0.41-0.767,0.715-1.058c0.306-0.291,0.669-0.514,1.089-0.67
			c0.42-0.156,0.879-0.234,1.377-0.234c0.18,0,0.367,0.017,0.562,0.05c0.195,0.033,0.387,0.085,0.576,0.157s0.371,0.168,0.544,0.288
			c0.174,0.12,0.33,0.268,0.468,0.441L105.367,62.311z"/>
		<path fill="#383738" d="M110.398,61.896h-1.818v-1.242h5.04v1.242h-1.818v5.13h-1.404V61.896z"/>
		<path fill="#383738" d="M116.113,60.654h1.404v6.372h-1.404V60.654z"/>
		<path fill="#383738" d="M120.253,63.841c0-0.511,0.085-0.973,0.256-1.387s0.41-0.767,0.715-1.058
			c0.306-0.291,0.669-0.514,1.089-0.67c0.42-0.156,0.879-0.234,1.377-0.234s0.957,0.078,1.377,0.234s0.783,0.379,1.089,0.67
			s0.544,0.644,0.715,1.058c0.171,0.414,0.257,0.876,0.257,1.387c0,0.51-0.085,0.972-0.257,1.386
			c-0.171,0.414-0.409,0.767-0.715,1.058s-0.669,0.515-1.089,0.67c-0.42,0.156-0.879,0.234-1.377,0.234s-0.957-0.078-1.377-0.234
			c-0.42-0.155-0.783-0.379-1.089-0.67c-0.306-0.291-0.544-0.644-0.715-1.058S120.253,64.351,120.253,63.841z M121.711,63.841
			c0,0.3,0.046,0.574,0.139,0.823c0.093,0.249,0.227,0.465,0.401,0.647c0.174,0.184,0.382,0.326,0.625,0.428
			c0.243,0.103,0.514,0.153,0.814,0.153c0.3,0,0.571-0.051,0.814-0.153c0.243-0.102,0.451-0.244,0.625-0.428
			c0.174-0.183,0.307-0.398,0.4-0.647c0.093-0.249,0.14-0.523,0.14-0.823c0-0.294-0.047-0.567-0.14-0.819
			c-0.093-0.252-0.227-0.47-0.4-0.652c-0.174-0.184-0.383-0.325-0.625-0.428c-0.243-0.102-0.515-0.153-0.814-0.153
			c-0.3,0-0.572,0.052-0.814,0.153c-0.243,0.103-0.452,0.244-0.625,0.428c-0.174,0.183-0.308,0.4-0.401,0.652
			C121.757,63.273,121.711,63.547,121.711,63.841z"/>
		<path fill="#383738" d="M129.883,60.654h1.908l2.709,4.428h0.018v-4.428h1.404v6.372h-1.836l-2.781-4.536h-0.018v4.536h-1.404
			V60.654z"/>
	</g>
	<g>
		<path fill="#383738" d="M191.398,62.311c-0.138-0.168-0.308-0.297-0.508-0.387c-0.201-0.091-0.434-0.136-0.698-0.136
			s-0.508,0.052-0.733,0.153c-0.225,0.103-0.42,0.244-0.585,0.428c-0.165,0.183-0.294,0.4-0.387,0.652
			c-0.093,0.252-0.139,0.525-0.139,0.819c0,0.3,0.046,0.574,0.139,0.823c0.093,0.249,0.221,0.465,0.383,0.647
			c0.162,0.184,0.352,0.326,0.571,0.428c0.219,0.103,0.455,0.153,0.707,0.153c0.288,0,0.543-0.061,0.765-0.181
			c0.222-0.119,0.405-0.287,0.549-0.504l1.17,0.873c-0.27,0.378-0.612,0.657-1.026,0.837c-0.414,0.181-0.84,0.271-1.278,0.271
			c-0.498,0-0.957-0.078-1.377-0.234c-0.42-0.155-0.783-0.379-1.089-0.67c-0.306-0.291-0.544-0.644-0.715-1.058
			s-0.256-0.876-0.256-1.386c0-0.511,0.085-0.973,0.256-1.387s0.41-0.767,0.715-1.058c0.306-0.291,0.669-0.514,1.089-0.67
			c0.42-0.156,0.879-0.234,1.377-0.234c0.18,0,0.367,0.017,0.562,0.05c0.195,0.033,0.387,0.085,0.576,0.157s0.371,0.168,0.544,0.288
			c0.174,0.12,0.33,0.268,0.468,0.441L191.398,62.311z"/>
		<path fill="#383738" d="M197.293,60.654h1.161l2.772,6.372h-1.584l-0.549-1.35h-2.475l-0.531,1.35h-1.548L197.293,60.654z
			 M197.833,62.509l-0.774,1.979h1.557L197.833,62.509z"/>
		<path fill="#383738" d="M203.719,60.654h1.404v5.076h2.601v1.296h-4.004V60.654z"/>
		<path fill="#383738" d="M210.298,60.654h2.124l1.467,4.158h0.018l1.477-4.158h2.115v6.372h-1.404V62.14h-0.019l-1.674,4.887h-1.07
			l-1.611-4.887h-0.019v4.887h-1.403V60.654z"/>
	</g>
	<g>
		<path fill="#383738" d="M270.98,60.654h2.367c0.33,0,0.642,0.03,0.937,0.09c0.294,0.061,0.55,0.164,0.77,0.311
			c0.219,0.147,0.393,0.346,0.521,0.594c0.129,0.249,0.193,0.562,0.193,0.941c0,0.372-0.06,0.684-0.18,0.936
			s-0.285,0.453-0.495,0.603c-0.21,0.15-0.459,0.257-0.747,0.32c-0.288,0.062-0.6,0.094-0.936,0.094h-1.026v2.484h-1.404V60.654z
			 M272.385,63.354h0.936c0.126,0,0.248-0.012,0.365-0.036c0.117-0.023,0.222-0.064,0.314-0.121
			c0.093-0.058,0.168-0.136,0.226-0.234c0.057-0.099,0.085-0.224,0.085-0.373c0-0.162-0.037-0.293-0.112-0.392
			c-0.075-0.1-0.171-0.176-0.288-0.229c-0.117-0.055-0.247-0.089-0.392-0.104c-0.144-0.016-0.282-0.022-0.414-0.022h-0.72V63.354z"
			/>
		<path fill="#383738" d="M278.505,60.654h4.328v1.296h-2.925v1.188h2.764v1.296h-2.764v1.296h3.087v1.296h-4.49V60.654z"/>
		<path fill="#383738" d="M285.579,63.841c0-0.511,0.085-0.973,0.256-1.387s0.41-0.767,0.716-1.058s0.669-0.514,1.089-0.67
			s0.879-0.234,1.377-0.234s0.957,0.078,1.377,0.234s0.783,0.379,1.089,0.67c0.307,0.291,0.545,0.644,0.716,1.058
			s0.257,0.876,0.257,1.387c0,0.51-0.086,0.972-0.257,1.386s-0.409,0.767-0.716,1.058c-0.306,0.291-0.669,0.515-1.089,0.67
			c-0.42,0.156-0.879,0.234-1.377,0.234s-0.957-0.078-1.377-0.234c-0.42-0.155-0.783-0.379-1.089-0.67s-0.545-0.644-0.716-1.058
			S285.579,64.351,285.579,63.841z M287.037,63.841c0,0.3,0.046,0.574,0.139,0.823c0.094,0.249,0.227,0.465,0.401,0.647
			c0.174,0.184,0.382,0.326,0.625,0.428c0.243,0.103,0.515,0.153,0.814,0.153s0.571-0.051,0.814-0.153
			c0.243-0.102,0.451-0.244,0.626-0.428c0.174-0.183,0.307-0.398,0.4-0.647c0.093-0.249,0.14-0.523,0.14-0.823
			c0-0.294-0.047-0.567-0.14-0.819c-0.094-0.252-0.227-0.47-0.4-0.652c-0.175-0.184-0.383-0.325-0.626-0.428
			c-0.243-0.102-0.515-0.153-0.814-0.153s-0.571,0.052-0.814,0.153c-0.243,0.103-0.451,0.244-0.625,0.428
			c-0.175,0.183-0.308,0.4-0.401,0.652C287.083,63.273,287.037,63.547,287.037,63.841z"/>
		<path fill="#383738" d="M295.208,60.654h2.367c0.33,0,0.642,0.03,0.937,0.09c0.294,0.061,0.55,0.164,0.77,0.311
			c0.219,0.147,0.393,0.346,0.521,0.594c0.129,0.249,0.193,0.562,0.193,0.941c0,0.372-0.06,0.684-0.18,0.936
			s-0.285,0.453-0.495,0.603c-0.21,0.15-0.459,0.257-0.747,0.32c-0.288,0.062-0.6,0.094-0.936,0.094h-1.026v2.484h-1.404V60.654z
			 M296.612,63.354h0.936c0.126,0,0.248-0.012,0.365-0.036c0.117-0.023,0.222-0.064,0.314-0.121
			c0.093-0.058,0.168-0.136,0.226-0.234c0.057-0.099,0.085-0.224,0.085-0.373c0-0.162-0.037-0.293-0.112-0.392
			c-0.075-0.1-0.171-0.176-0.288-0.229c-0.117-0.055-0.247-0.089-0.392-0.104c-0.144-0.016-0.282-0.022-0.414-0.022h-0.72V63.354z"
			/>
		<path fill="#383738" d="M302.732,60.654h1.404v5.076h2.601v1.296h-4.005V60.654z"/>
		<path fill="#383738" d="M309.365,60.654h4.329v1.296h-2.925v1.188h2.763v1.296h-2.763v1.296h3.087v1.296h-4.491V60.654z"/>
	</g>
	<g>
		<path fill="#383738" d="M363.675,62.166l-1.278,1.125l-0.765-0.882l2.079-1.755h1.26v6.372h-1.296V62.166z"/>
		<path fill="#383738" d="M372.863,61.843h-2.528l-0.027,0.98c0.138-0.048,0.327-0.072,0.567-0.072c0.323,0,0.621,0.049,0.891,0.145
			c0.271,0.096,0.503,0.235,0.697,0.418c0.195,0.184,0.347,0.405,0.455,0.666c0.107,0.262,0.162,0.554,0.162,0.878
			c0,0.36-0.062,0.681-0.185,0.963s-0.293,0.521-0.509,0.716c-0.216,0.194-0.473,0.344-0.77,0.445s-0.619,0.153-0.968,0.153
			c-0.552,0-1.014-0.136-1.386-0.405c-0.372-0.271-0.627-0.678-0.765-1.225l1.413-0.323c0.035,0.228,0.132,0.412,0.287,0.554
			c0.156,0.141,0.352,0.211,0.586,0.211c0.287,0,0.517-0.09,0.688-0.27c0.171-0.181,0.256-0.408,0.256-0.685
			c0-0.21-0.043-0.382-0.13-0.518c-0.088-0.135-0.201-0.243-0.343-0.324c-0.141-0.08-0.298-0.136-0.472-0.166
			c-0.175-0.03-0.349-0.045-0.522-0.045c-0.222,0-0.445,0.021-0.671,0.062c-0.225,0.042-0.442,0.1-0.652,0.172l0.072-3.52h3.852
			V61.843z"/>
		<path fill="#383738" d="M383.601,62.211c-0.114-0.144-0.269-0.25-0.464-0.319c-0.194-0.068-0.379-0.104-0.554-0.104
			c-0.102,0-0.206,0.013-0.314,0.036c-0.108,0.024-0.21,0.062-0.306,0.112c-0.097,0.052-0.175,0.119-0.234,0.203
			c-0.061,0.084-0.09,0.186-0.09,0.306c0,0.192,0.072,0.339,0.216,0.441c0.144,0.102,0.325,0.188,0.545,0.261
			c0.219,0.072,0.454,0.144,0.706,0.216s0.487,0.174,0.706,0.306c0.22,0.133,0.401,0.31,0.545,0.531
			c0.145,0.223,0.216,0.52,0.216,0.892c0,0.354-0.065,0.663-0.198,0.927c-0.132,0.264-0.31,0.482-0.535,0.657
			c-0.225,0.174-0.486,0.303-0.783,0.387s-0.61,0.126-0.94,0.126c-0.414,0-0.798-0.063-1.151-0.189
			c-0.354-0.126-0.685-0.329-0.99-0.611l0.999-1.099c0.144,0.192,0.325,0.341,0.544,0.446c0.22,0.104,0.446,0.157,0.68,0.157
			c0.114,0,0.229-0.014,0.347-0.041c0.117-0.026,0.222-0.067,0.315-0.121c0.093-0.054,0.168-0.123,0.225-0.207
			s0.086-0.183,0.086-0.297c0-0.192-0.074-0.344-0.221-0.455c-0.147-0.11-0.332-0.205-0.554-0.283s-0.462-0.156-0.72-0.234
			c-0.259-0.077-0.498-0.183-0.721-0.314c-0.222-0.132-0.406-0.306-0.553-0.522c-0.147-0.216-0.221-0.501-0.221-0.854
			c0-0.342,0.067-0.642,0.202-0.9c0.135-0.258,0.315-0.474,0.54-0.647c0.226-0.174,0.484-0.305,0.778-0.392s0.598-0.131,0.909-0.131
			c0.36,0,0.708,0.051,1.044,0.153c0.336,0.102,0.64,0.273,0.909,0.513L383.601,62.211z"/>
		<path fill="#383738" d="M387.471,60.654h4.328v1.296h-2.925v1.188h2.764v1.296h-2.764v1.296h3.087v1.296h-4.49V60.654z"/>
		<path fill="#383738" d="M399.054,62.311c-0.139-0.168-0.308-0.297-0.509-0.387c-0.201-0.091-0.434-0.136-0.697-0.136
			c-0.265,0-0.509,0.052-0.733,0.153c-0.226,0.103-0.42,0.244-0.585,0.428c-0.165,0.183-0.294,0.4-0.388,0.652
			c-0.093,0.252-0.139,0.525-0.139,0.819c0,0.3,0.046,0.574,0.139,0.823c0.094,0.249,0.221,0.465,0.383,0.647
			c0.162,0.184,0.353,0.326,0.571,0.428c0.22,0.103,0.455,0.153,0.707,0.153c0.288,0,0.543-0.061,0.765-0.181
			c0.222-0.119,0.405-0.287,0.549-0.504l1.17,0.873c-0.27,0.378-0.611,0.657-1.025,0.837c-0.414,0.181-0.84,0.271-1.278,0.271
			c-0.498,0-0.957-0.078-1.377-0.234c-0.42-0.155-0.783-0.379-1.089-0.67s-0.545-0.644-0.716-1.058s-0.256-0.876-0.256-1.386
			c0-0.511,0.085-0.973,0.256-1.387s0.41-0.767,0.716-1.058s0.669-0.514,1.089-0.67s0.879-0.234,1.377-0.234
			c0.18,0,0.367,0.017,0.562,0.05s0.387,0.085,0.576,0.157c0.188,0.072,0.37,0.168,0.544,0.288c0.175,0.12,0.33,0.268,0.469,0.441
			L399.054,62.311z"/>
	</g>
	<circle fill="#383738" cx="27.533" cy="27.516" r="26.375"/>
	<circle fill="#383738" cx="116.542" cy="27.516" r="26.375"/>
	<circle fill="#383738" cx="205.228" cy="27.516" r="26.375"/>
	<circle fill="#383738" cx="294.208" cy="27.516" r="26.375"/>
	<circle fill="#383738" cx="383.382" cy="27.516" r="26.375"/>
	<path fill="#FFFFFF" d="M125.235,17.836c-0.081-0.076-0.176-0.115-0.289-0.115c-2.088,0-3.812,0.285-5.172,0.854
		c-1.361,0.567-2.793,1.6-4.297,3.096c-0.64,0.648-1.345,1.428-2.112,2.341l-4.549,0.239c-0.128,0.017-0.232,0.08-0.312,0.193
		l-2.688,4.608c-0.096,0.159-0.076,0.315,0.06,0.468l0.768,0.768c0.072,0.073,0.164,0.109,0.276,0.109
		c0.048,0,0.083-0.004,0.108-0.014l3.312-1.02l3.373,3.373l-1.021,3.313c-0.04,0.145-0.008,0.271,0.097,0.385l0.768,0.768
		c0.088,0.072,0.18,0.107,0.276,0.107c0.072,0,0.135-0.016,0.191-0.049l4.609-2.688c0.112-0.08,0.176-0.184,0.192-0.312l0.24-4.55
		c0.912-0.768,1.692-1.472,2.341-2.111c1.424-1.434,2.438-2.875,3.042-4.327c0.604-1.452,0.906-3.175,0.906-5.167
		C125.355,18.002,125.315,17.913,125.235,17.836z M122.33,22.379c-0.224,0.223-0.496,0.336-0.816,0.336
		c-0.32,0-0.592-0.113-0.816-0.336c-0.223-0.225-0.335-0.496-0.335-0.816s0.112-0.593,0.335-0.816
		c0.224-0.225,0.497-0.336,0.816-0.336c0.32,0,0.592,0.111,0.816,0.336c0.224,0.224,0.336,0.496,0.336,0.816
		S122.555,22.155,122.33,22.379z"/>
	<g>
		<g>
			<path fill-rule="evenodd" clip-rule="evenodd" fill="#FFFFFF" d="M220.526,27.099c-0.969-1.662-2.791-2.383-4.842-0.83
				c-2.049,1.551-2.561,1.829-3.131,2.771c-1.646,2.728-4.678,3.094-7.506,3.146c-0.832,0.015-2.068,0.011-2.899,0
				c-1.36-0.018-2.862-0.4-4.199-0.65c-1.14-0.213-2.228-0.542-3.17-1.273c-0.396-0.312-0.676-0.381-1.235-0.339
				c-0.245,0.019-1.855,0.547-1.95,0.467c0.081,0.068,0.174,0.092,0.279,0.122c0.535,0.156,1.069,0.312,1.604,0.468
				c0,0-2.107,1.663-0.854,2.772c0.535,0.473,1.271,0.803,1.99,0.595c0.39-0.112,0.643-0.653,1.046-0.695
				c0.482-0.05,0.739,0.586,1.235,0.655c0.705,0.099,1.4,0.113,1.804-0.538c0.17-0.274,0.282-0.648,0.575-0.82
				c0.381-0.224,0.853-0.024,1.26-0.024c0.603-0.001,1.205-0.003,1.807-0.007c1.224-0.007,2.447-0.013,3.671,0.014
				c0.402,0.009,0.752,0.07,1.078,0.171c0.641,0.199,1.186,0.554,1.84,0.964c0.941,0.59,3.223,0.99,3.344-0.596
				c-0.014,0.18,1.367,0.516,1.52,0.538c0.52,0.076,1.4,0.004,1.609-0.588c0.203-0.585-0.332-1.032-0.592-1.48
				c-0.377-0.659,0.555-0.937,0.971-1.206c0.24-0.156,1.076-0.897,1.328-0.861c0,0,1.934,0.276,2.562,0.276
				C220.298,30.149,221.495,28.763,220.526,27.099z M211.415,29.041c0.568-1.053,1.994-2.218,1.994-2.218s-0.855-1.663-1.709-2.772
				c-0.854-1.107-3.359-3.604-6.549-3.604c-3.188,0-6.036,1.109-7.403,2.496c-1.367,1.386-3.417,6.098-3.417,6.098
				c1.025,0.664,5.011,2.217,9.396,2.217C208.112,31.257,210.847,30.093,211.415,29.041z"/>
		</g>
	</g>
	<path fill="#FFFFFF" d="M302.122,22.982c-0.807-1.385-1.902-2.48-3.287-3.288s-2.896-1.212-4.535-1.212s-3.15,0.404-4.535,1.212
		s-2.479,1.903-3.287,3.288s-1.213,2.896-1.213,4.535c0,1.638,0.404,3.148,1.213,4.533s1.902,2.48,3.287,3.288
		c1.385,0.807,2.896,1.211,4.535,1.211s3.15-0.404,4.535-1.211c1.383-0.808,2.48-1.903,3.287-3.288
		c0.809-1.385,1.211-2.896,1.211-4.533C303.333,25.877,302.931,24.365,302.122,22.982z M290.224,23.441
		c0.293-0.295,0.648-0.441,1.064-0.441s0.77,0.146,1.064,0.441c0.295,0.293,0.441,0.648,0.441,1.064c0,0.415-0.146,0.77-0.441,1.064
		c-0.295,0.294-0.648,0.44-1.064,0.44s-0.771-0.146-1.064-0.44c-0.295-0.295-0.441-0.649-0.441-1.064
		C289.782,24.089,289.929,23.734,290.224,23.441z M298.604,29.622c-0.289,0.949-0.832,1.714-1.623,2.294s-1.686,0.87-2.682,0.87
		s-1.891-0.29-2.682-0.87c-0.793-0.58-1.334-1.345-1.625-2.294c-0.062-0.196-0.047-0.386,0.049-0.57
		c0.094-0.185,0.242-0.308,0.447-0.371c0.195-0.063,0.385-0.046,0.57,0.048c0.184,0.094,0.307,0.243,0.369,0.446
		c0.197,0.628,0.559,1.136,1.09,1.523c0.527,0.388,1.123,0.583,1.781,0.583s1.252-0.194,1.781-0.583
		c0.529-0.388,0.893-0.896,1.088-1.523c0.064-0.203,0.189-0.353,0.377-0.446s0.381-0.111,0.576-0.048s0.342,0.187,0.436,0.371
		S298.667,29.425,298.604,29.622z M298.376,25.57c-0.295,0.294-0.65,0.44-1.064,0.44c-0.416,0-0.771-0.146-1.064-0.44
		c-0.295-0.295-0.441-0.649-0.441-1.064c0-0.416,0.146-0.771,0.441-1.064c0.293-0.295,0.648-0.441,1.064-0.441
		c0.414,0,0.77,0.146,1.064,0.441c0.293,0.293,0.439,0.648,0.439,1.064C298.815,24.92,298.669,25.275,298.376,25.57z"/>
	<g>
		<g>
			
				<rect x="25.183" y="25.217" transform="matrix(0.7073 -0.7069 0.7069 0.7073 -10.4346 26.4383)" fill="none" width="3.047" height="1.204"/>
			<path fill="#FFFFFF" d="M38.08,35.016l-9.871-9.848l-2.154,2.153l9.871,9.849c0.09,0.09,0.203,0.135,0.337,0.135
				s0.247-0.047,0.336-0.135l1.481-1.482c0.09-0.091,0.135-0.202,0.135-0.336C38.215,35.216,38.17,35.107,38.08,35.016z"/>
			<path fill="#FFFFFF" d="M25.024,21.982c-0.089-0.088-0.202-0.134-0.336-0.134c-0.135,0-0.247,0.046-0.336,0.134l-1.481,1.481
				c-0.089,0.091-0.134,0.202-0.134,0.337c0,0.136,0.045,0.246,0.134,0.336l2.333,2.334l2.155-2.154L25.024,21.982z"/>
		</g>
		<g>
			<path fill="#FFFFFF" d="M13.262,24.889l3.796,0.473l0.471,3.794L18,25.362l3.795-0.473L18,24.42l-0.471-3.795l-0.471,3.795
				L13.262,24.889z M16.53,23.89"/>
		</g>
		<g>
			<path fill="#FFFFFF" d="M27.046,20.522l2.49,0.311l0.309,2.489l0.309-2.489l2.488-0.311l-2.488-0.307l-0.309-2.489l-0.309,2.489
				L27.046,20.522z M29.19,19.868"/>
		</g>
		<g>
			<path fill="#FFFFFF" d="M18.131,31.08l2.489,0.311l0.309,2.489l0.309-2.489l2.489-0.311l-2.489-0.307l-0.309-2.489l-0.309,2.489
				L18.131,31.08z M20.274,30.424"/>
		</g>
	</g>
	<g>
		<path fill="#FFFFFF" d="M391.704,19.196c-0.455-0.453-0.998-0.68-1.631-0.68H376.69c-0.633,0-1.176,0.227-1.629,0.68
			s-0.68,0.996-0.68,1.629v13.383c0,0.633,0.227,1.176,0.68,1.629c0.453,0.454,0.996,0.68,1.629,0.68h13.383
			c0.633,0,1.176-0.227,1.629-0.68c0.455-0.453,0.68-0.996,0.68-1.629V20.825C392.382,20.192,392.157,19.649,391.704,19.196
			L391.704,19.196z M380.845,25.002c0.707-0.684,1.559-1.025,2.549-1.025c1,0,1.854,0.342,2.561,1.025s1.061,1.51,1.061,2.479
			s-0.354,1.795-1.061,2.479s-1.559,1.025-2.561,1.025c-0.99,0-1.842-0.342-2.549-1.025s-1.061-1.51-1.061-2.479
			S380.138,25.686,380.845,25.002L380.845,25.002z M390.343,33.727c0,0.203-0.07,0.373-0.211,0.51s-0.309,0.205-0.504,0.205h-12.527
			c-0.201,0-0.373-0.068-0.508-0.205c-0.137-0.137-0.207-0.307-0.207-0.51v-7.594h1.652c-0.154,0.492-0.234,1.004-0.234,1.535
			c0,1.5,0.549,2.779,1.641,3.838c1.094,1.059,2.41,1.588,3.949,1.588c1.016,0,1.953-0.242,2.812-0.727
			c0.861-0.484,1.539-1.143,2.039-1.975c0.502-0.832,0.75-1.74,0.75-2.725c0-0.531-0.078-1.043-0.234-1.535h1.582V33.727z
			 M390.343,23.262c0,0.227-0.078,0.418-0.234,0.574c-0.154,0.156-0.348,0.234-0.574,0.234h-2.039c-0.227,0-0.418-0.078-0.574-0.234
			s-0.234-0.348-0.234-0.574v-1.934c0-0.219,0.078-0.408,0.234-0.568s0.348-0.24,0.574-0.24h2.039c0.227,0,0.42,0.08,0.574,0.24
			c0.156,0.16,0.234,0.35,0.234,0.568V23.262z M390.343,23.262"/>
	</g>
</g>
</svg>
